# xmcd
#
# Track frame offsets: 
#        187
#        21970
#        39647
#        58132
#        74250
#        89755
#        110522
#        131252
#        152470
#        174362
#
# Disc length: 2564 seconds
#
# Revision: 0
# Processed by: cddbd v1.5.2PL0 Copyright (c) Steve Scherf et al.
# Submitted via: ExactAudioCopy v0.95b4
#
DISCID=820a020a
DTITLE=PRINCESS - All For You
DYEAR=1987
DGENRE=R&B
TTITLE0=Red Hot
TTITLE1=Everybody Says It's Love
TTITLE2=Shoot The Moon
TTITLE3=Risky Business
TTITLE4=Where Are The Stars
TTITLE5=I Cannot Carry On
TTITLE6=Programmed To Love You
TTITLE7=All For You
TTITLE8=Jammin' With Your Love
TTITLE9=I Wish You Love
EXTD=
EXTT0=
EXTT1=
EXTT2=
EXTT3=
EXTT4=
EXTT5=
EXTT6=
EXTT7=
EXTT8=
EXTT9=
PLAYORDER=
